<svg width="1000" height="195" viewBox="0 0 1000 195" fill="none" xmlns="http://www.w3.org/2000/svg">
<path d="M101.798 195C99.1393 194.929 96.4809 195.038 93.8218 194.974C50.9067 193.94 12.9272 162.648 2.70489 120.692C-5.47451 87.1198 5.23482 50.3396 30.2506 26.7264C48.1689 9.81288 67.9308 2.09356 91.8657 0.0215258C113.569 -0.40415 134.833 5.47835 152.629 18.1301C195.727 48.7695 206.036 110.222 175.642 153.612C160.463 175.281 136.025 190.579 109.905 194.082C107.214 194.443 104.47 194.537 101.798 195ZM92.6285 5.59114C87.3512 5.99803 82.1088 6.56199 76.9334 7.72244C32.7713 17.624 2.08474 59.0924 5.54081 104.763C9.08544 151.602 48.9125 188.681 95.2098 189.442C96.8979 189.469 98.6166 189.358 100.299 189.447C126.357 187.421 148.961 177.297 166.311 156.797C196.195 121.489 194.427 68.5411 163.134 34.874C144.753 15.0987 119.495 4.95465 92.6285 5.59114Z" fill="#1D5745"/>
<path d="M93.7629 66.5515C76.3367 60.6446 81.0227 39.6839 95.7952 38.5219C111.138 37.165 117.839 60.9774 99.4026 66.5515V89.9591C107.811 90.627 114.791 91.8052 122.74 94.7527C132.799 98.4818 137.505 102.481 147.954 95.7665C153.385 92.2766 171.116 75.9229 158.416 71.0935C154.16 69.4747 148.871 71.369 144.528 70.4624C142.248 69.9862 141.801 66.5975 143.806 65.4263C145.058 64.6951 155.195 64.9841 156.967 65.1498C161.654 65.5892 164.93 68.3554 167.088 72.5467C169.402 77.0411 168.073 80.6197 165.872 84.6837C159.417 96.6021 144.102 108.799 129.93 103.666C127.332 102.724 124.855 101.474 122.24 100.574C117.565 106.188 111.952 110.837 105.024 113.295C111.45 116.547 118.535 120.77 117.315 129.156C116.14 137.239 108.854 138.844 103.655 142.7C115.85 150.36 111.181 161.943 99.4026 165.201C99.3902 168.209 99.5414 171.249 99.4026 174.252C99.0723 174.756 98.7512 175.156 98.3057 175.56C92.6285 178.652 93.7489 167.965 93.7629 165.201C89.7685 163.626 86.256 162.797 83.6662 158.963C79.3453 152.566 84.8482 146.279 90.1593 142.7C85.0798 140.191 79.5978 137.828 76.9302 132.434C72.3627 123.2 80.8688 116.897 88.2176 113.295C81.0281 110.699 75.5905 106.17 70.4848 100.574C66.8495 102.125 62.8744 103.984 58.9256 104.44C45.6509 105.97 26.8052 92.0098 25.4188 78.6534C24.7171 71.8897 28.3362 65.6699 35.4137 65.0296C37.7076 64.8218 48.2944 64.5717 49.5322 65.7007C51.0333 67.0695 50.4441 70.0084 48.4075 70.4413C47.2061 70.6963 45.7377 70.5555 44.5063 70.5534L37.3168 70.5187C33.2098 70.5204 30.509 72.7145 30.7283 77.0995C31.2338 87.2032 47.012 99.4398 57.03 99.0263C62.1904 98.8136 69.2121 95.0456 74.3001 93.4083C80.5558 91.3955 87.2204 90.3526 93.7629 89.9591V66.5515ZM95.7952 44.05C84.6402 46.1478 86.0855 61.7665 97.3381 61.319C109.348 58.9127 106.005 42.7657 95.7952 44.05ZM91.8657 95.7578C86.62 96.2205 81.1256 97.0497 76.1008 98.6588C81.0608 103.514 89.6001 109.833 96.4996 109.716C100.49 109.648 104.681 107.59 108.083 105.646C111.455 103.603 114.192 100.974 117.345 98.6588C111.561 97.3339 105.368 95.6983 99.4026 95.7578C99.4026 97.7961 99.6985 102.358 99.3629 104.052C98.7759 107.015 94.5901 107.492 93.8733 104.288C93.4493 102.39 93.7484 97.8984 93.7629 95.7578C93.1357 95.7545 92.4913 95.7188 91.8657 95.7578ZM96.5345 115.997C91.8169 117.615 78.8489 122.351 81.5513 129.37C83.2223 133.71 87.8455 135.242 91.6153 137.136C92.6264 137.644 95.5497 139.717 96.5345 139.587L102.15 136.845C106.112 134.921 114.343 130.817 111.478 125.005C109.957 121.919 100.114 116.026 96.5345 115.997ZM96.5345 145.757C89.8022 148.927 82.1506 155.949 93.7629 159.259C94.1333 155.981 92.5095 150.935 97.3381 150.853C98.2526 151.207 98.7823 151.794 99.4026 152.522C99.6824 154.712 99.3736 157.043 99.4026 159.259C101.497 158.244 106.687 155.192 105.334 152.196C104.334 149.984 99.0316 145.605 96.5345 145.757Z" fill="#1D5745"/>
<path d="M76.1008 69.2745C71.7719 68.2553 68.8293 62.4388 59.0049 61.3915C56.8262 61.1588 53.4982 61.9495 51.6444 60.7431C49.5435 59.376 50.4736 56.0258 53.5341 55.7232C61.0549 55.4401 68.4251 57.3317 74.6245 61.7233C77.381 63.6765 81.8526 68.6683 76.1008 69.2745Z" fill="#1D5745"/>
<path d="M120.522 67.0733C118.396 68.9871 115.003 69.9293 114.735 66.1386C114.36 60.8324 130.595 56.0593 134.649 55.7232C142.638 54.4876 144.161 59.5459 140.441 60.9147C139.154 61.3882 137.374 61.0153 136.002 61.0673C130.422 61.28 124.814 63.4833 120.522 67.0733Z" fill="#1D5745"/>
<path d="M97.3381 136.006C96.1276 136.095 94.5349 135.938 93.9575 134.653C93.4922 133.617 92.2366 121.244 95.7952 119.663C97.9299 119.586 99.0541 120.165 99.3393 122.329C99.6583 124.742 99.5747 131.768 99.4026 134.336C98.8134 135.163 98.287 135.632 97.3381 136.006Z" fill="#1D5745"/>
<path d="M379.046 153.152H328.627V147.388C330.45 147.334 332.782 147.145 335.623 146.82C338.518 146.495 340.501 146.035 341.573 145.44C343.235 144.411 344.442 143.248 345.192 141.949C345.996 140.596 346.398 138.918 346.398 136.915V53.1334H345.192L306.272 151.285H302.251L265.181 51.1038H264.135V119.867C264.135 126.524 264.537 131.584 265.341 135.048C266.199 138.512 267.486 141.002 269.201 142.517C270.381 143.654 272.82 144.736 276.519 145.765C280.218 146.793 282.63 147.334 283.756 147.388V153.152H237.679V147.388C240.092 147.172 242.611 146.766 245.238 146.17C247.918 145.575 249.982 144.682 251.43 143.491C253.306 141.976 254.593 139.649 255.29 136.51C255.987 133.37 256.335 128.121 256.335 120.76V61.8201C256.335 58.4104 255.933 55.6231 255.129 53.4582C254.325 51.2933 253.172 49.5343 251.671 48.1812C250.009 46.7199 247.972 45.6374 245.56 44.9338C243.147 44.2302 240.762 43.8243 238.403 43.7161V37.952H277.323L309.971 124.332L337.874 52.078C338.893 49.426 339.751 46.6658 340.448 43.7973C341.198 40.8746 341.6 38.9262 341.654 37.952H378.885V43.7161C377.384 43.7702 375.454 44.0137 373.096 44.4467C370.79 44.8797 369.102 45.2856 368.03 45.6645C366.207 46.314 364.974 47.3964 364.331 48.9119C363.687 50.4273 363.366 52.078 363.366 53.8641V136.915C363.366 138.81 363.687 140.406 364.331 141.705C364.974 143.004 366.207 144.141 368.03 145.115C368.995 145.656 370.71 146.17 373.176 146.658C375.642 147.091 377.599 147.334 379.046 147.388V153.152Z" fill="#1D5745"/>
<path d="M462.837 134.318C459.513 140.704 455.064 145.792 449.488 149.58C443.913 153.369 437.507 155.263 430.27 155.263C423.89 155.263 418.288 154.126 413.463 151.853C408.692 149.58 404.752 146.495 401.642 142.598C398.533 138.702 396.201 134.155 394.646 128.959C393.145 123.764 392.395 118.27 392.395 112.479C392.395 107.283 393.199 102.196 394.807 97.2164C396.469 92.183 398.882 87.6637 402.044 83.6587C405.1 79.8159 408.88 76.731 413.383 74.4037C417.94 72.0223 423.032 70.8316 428.661 70.8316C434.451 70.8316 439.41 71.7517 443.538 73.5918C447.666 75.432 451.016 77.9487 453.59 81.142C456.056 84.1728 457.878 87.7449 459.058 91.8583C460.291 95.9716 460.907 100.437 460.907 105.254V110.612H408.397C408.397 115.862 408.88 120.624 409.845 124.9C410.863 129.176 412.445 132.937 414.589 136.185C416.68 139.324 419.414 141.814 422.791 143.654C426.169 145.44 430.189 146.333 434.853 146.333C439.624 146.333 443.726 145.223 447.157 143.004C450.641 140.731 453.992 136.672 457.208 130.827L462.837 134.318ZM445.066 103.792C445.066 100.761 444.798 97.5141 444.262 94.0502C443.779 90.5864 442.975 87.6908 441.849 85.3635C440.616 82.8739 438.928 80.8443 436.783 79.2747C434.639 77.7052 431.878 76.9204 428.501 76.9204C422.872 76.9204 418.181 79.3018 414.428 84.0646C410.729 88.7733 408.719 95.3492 408.397 103.792H445.066Z" fill="#1D5745"/>
<path d="M558.851 151.691L531.189 153.477L529.983 152.34V144.871L529.339 144.709C526.552 147.848 523.094 150.419 518.966 152.422C514.892 154.424 510.683 155.425 506.341 155.425C501.838 155.425 497.469 154.424 493.233 152.422C489.052 150.365 485.407 147.496 482.297 143.816C479.134 140.082 476.615 135.589 474.738 130.34C472.916 125.09 472.004 119.298 472.004 112.966C472.004 107.175 472.996 101.682 474.98 96.4858C476.963 91.29 479.697 86.7437 483.182 82.8468C486.452 79.2206 490.446 76.325 495.163 74.1601C499.935 71.9952 504.786 70.9128 509.718 70.9128C513.417 70.9128 517.036 71.3999 520.574 72.3741C524.166 73.2942 527.248 74.4849 529.822 75.9462V48.1C529.822 45.8269 529.446 43.7702 528.696 41.93C527.945 40.0357 526.9 38.6015 525.56 37.6273C524.059 36.5989 522.022 35.8683 519.448 35.4353C516.929 34.9482 514.195 34.5964 511.246 34.3799V29.3465L543.653 27.4792L544.859 28.697V136.672C544.859 138.566 545.208 140.19 545.904 141.543C546.655 142.842 547.727 143.951 549.121 144.871C550.139 145.521 551.614 145.927 553.544 146.089C555.474 146.252 557.243 146.36 558.851 146.414V151.691ZM529.822 137.646V90.8029C529.393 89.3957 528.696 87.8802 527.731 86.2566C526.766 84.6329 525.56 83.1445 524.112 81.7914C522.558 80.4384 520.735 79.3288 518.644 78.4629C516.553 77.5428 514.114 77.0828 511.327 77.0828C508.11 77.0828 505.135 77.9217 502.401 79.5995C499.72 81.2773 497.335 83.6857 495.244 86.8249C493.26 89.8557 491.679 93.7255 490.499 98.4342C489.374 103.089 488.811 108.257 488.811 113.94C488.811 118.487 489.24 122.627 490.097 126.362C490.955 130.042 492.403 133.479 494.44 136.672C496.316 139.703 498.702 142.138 501.596 143.978C504.545 145.819 508.03 146.739 512.05 146.739C516.339 146.739 519.877 145.792 522.665 143.897C525.506 142.003 527.892 139.919 529.822 137.646Z" fill="#1D5745"/>
<path d="M605.089 153.152H566.732V147.794C567.965 147.686 569.224 147.578 570.511 147.469C571.851 147.361 573.004 147.145 573.969 146.82C575.47 146.333 576.569 145.494 577.266 144.303C578.016 143.058 578.391 141.462 578.391 139.513V90.0722C578.391 88.3403 577.989 86.7707 577.185 85.3635C576.435 83.9022 575.363 82.6845 573.969 81.7102C572.95 81.0608 571.476 80.5195 569.546 80.0866C567.616 79.5995 565.847 79.3018 564.239 79.1935V73.9166L592.223 72.1305L593.348 73.2671V138.539C593.348 140.433 593.697 142.003 594.394 143.248C595.144 144.493 596.297 145.413 597.852 146.008C599.031 146.495 600.184 146.901 601.309 147.226C602.435 147.496 603.695 147.686 605.089 147.794V153.152ZM594.957 40.5499C594.957 43.6349 593.938 46.341 591.901 48.6683C589.917 50.9415 587.451 52.078 584.503 52.078C581.769 52.078 579.383 50.9956 577.346 48.8307C575.363 46.6116 574.371 44.0949 574.371 41.2805C574.371 38.3038 575.363 35.7059 577.346 33.4869C579.383 31.2678 581.769 30.1583 584.503 30.1583C587.559 30.1583 590.051 31.2137 591.981 33.3245C593.965 35.3812 594.957 37.7896 594.957 40.5499Z" fill="#1D5745"/>
<path d="M754.256 153.152H703.837V147.388C705.659 147.334 707.991 147.145 710.833 146.82C713.728 146.495 715.711 146.035 716.783 145.44C718.445 144.411 719.651 143.248 720.402 141.949C721.206 140.596 721.608 138.918 721.608 136.915V53.1334H720.402L681.482 151.285H677.461L640.39 51.1038H639.345V119.867C639.345 126.524 639.747 131.584 640.551 135.048C641.409 138.512 642.696 141.002 644.411 142.517C645.59 143.654 648.03 144.736 651.729 145.765C655.428 146.793 657.84 147.334 658.966 147.388V153.152H612.889V147.388C615.301 147.172 617.821 146.766 620.448 146.17C623.128 145.575 625.192 144.682 626.64 143.491C628.516 141.976 629.803 139.649 630.5 136.51C631.196 133.37 631.545 128.121 631.545 120.76V61.8201C631.545 58.4104 631.143 55.6231 630.339 53.4582C629.535 51.2933 628.382 49.5343 626.881 48.1812C625.219 46.7199 623.182 45.6374 620.769 44.9338C618.357 44.2302 615.971 43.8243 613.613 43.7161V37.952H652.533L685.181 124.332L713.084 52.078C714.103 49.426 714.961 46.6658 715.658 43.7973C716.408 40.8746 716.81 38.9262 716.864 37.952H754.095V43.7161C752.594 43.7702 750.664 44.0137 748.305 44.4467C746 44.8797 744.312 45.2856 743.239 45.6645C741.417 46.314 740.184 47.3964 739.54 48.9119C738.897 50.4273 738.575 52.078 738.575 53.8641V136.915C738.575 138.81 738.897 140.406 739.54 141.705C740.184 143.004 741.417 144.141 743.239 145.115C744.204 145.656 745.92 146.17 748.386 146.658C750.852 147.091 752.809 147.334 754.256 147.388V153.152Z" fill="#1D5745"/>
<path d="M806.123 153.152H767.766V147.794C768.999 147.686 770.258 147.578 771.545 147.469C772.885 147.361 774.038 147.145 775.003 146.82C776.504 146.333 777.603 145.494 778.3 144.303C779.05 143.058 779.426 141.462 779.426 139.513V90.0722C779.426 88.3403 779.023 86.7707 778.219 85.3635C777.469 83.9022 776.397 82.6845 775.003 81.7102C773.984 81.0608 772.51 80.5195 770.58 80.0866C768.65 79.5995 766.881 79.3018 765.273 79.1935V73.9166L793.257 72.1305L794.382 73.2671V138.539C794.382 140.433 794.731 142.003 795.428 143.248C796.178 144.493 797.331 145.413 798.886 146.008C800.065 146.495 801.218 146.901 802.343 147.226C803.469 147.496 804.729 147.686 806.123 147.794V153.152ZM795.991 40.5499C795.991 43.6349 794.972 46.341 792.935 48.6683C790.951 50.9415 788.485 52.078 785.537 52.078C782.803 52.078 780.417 50.9956 778.38 48.8307C776.397 46.6116 775.405 44.0949 775.405 41.2805C775.405 38.3038 776.397 35.7059 778.38 33.4869C780.417 31.2678 782.803 30.1583 785.537 30.1583C788.593 30.1583 791.085 31.2137 793.015 33.3245C794.999 35.3812 795.991 37.7896 795.991 40.5499Z" fill="#1D5745"/>
<path d="M903.423 153.152H864.583V147.794C865.816 147.686 867.157 147.578 868.604 147.469C870.105 147.361 871.338 147.145 872.303 146.82C873.804 146.333 874.903 145.494 875.6 144.303C876.351 143.058 876.726 141.462 876.726 139.513V98.353C876.726 92.6701 875.386 88.2862 872.705 85.2012C870.078 82.1162 866.862 80.5737 863.056 80.5737C860.214 80.5737 857.614 81.0337 855.255 81.9538C852.897 82.8198 850.806 83.9022 848.983 85.2012C847.214 86.446 845.793 87.7991 844.721 89.2604C843.703 90.6676 842.952 91.8041 842.47 92.6701V138.702C842.47 140.542 842.845 142.057 843.596 143.248C844.346 144.439 845.472 145.359 846.973 146.008C848.099 146.549 849.305 146.955 850.592 147.226C851.932 147.496 853.299 147.686 854.693 147.794V153.152H815.853V147.794C817.086 147.686 818.346 147.578 819.632 147.469C820.972 147.361 822.125 147.145 823.09 146.82C824.591 146.333 825.69 145.494 826.387 144.303C827.138 143.058 827.513 141.462 827.513 139.513V90.0722C827.513 88.232 827.111 86.5542 826.307 85.0388C825.556 83.4692 824.484 82.1974 823.09 81.2231C822.072 80.5737 820.865 80.1136 819.471 79.843C818.078 79.5183 816.577 79.3018 814.968 79.1935V73.9166L841.344 72.1305L842.47 73.2671V84.5517H842.872C844.158 83.2527 845.767 81.7102 847.697 79.9242C849.627 78.084 851.449 76.5956 853.165 75.4591C855.148 74.1601 857.507 73.0777 860.241 72.2117C862.975 71.3457 866.058 70.9128 869.489 70.9128C877.101 70.9128 882.73 73.3212 886.376 78.1381C890.075 82.9009 891.924 89.2604 891.924 97.2164V138.864C891.924 140.758 892.246 142.301 892.889 143.491C893.532 144.628 894.631 145.521 896.186 146.17C897.473 146.712 898.572 147.091 899.483 147.307C900.448 147.524 901.761 147.686 903.423 147.794V153.152Z" fill="#1D5745"/>
<path d="M1000 151.691L972.338 153.477L971.132 152.34V144.871L970.488 144.709C967.7 147.848 964.243 150.419 960.115 152.422C956.041 154.424 951.832 155.425 947.49 155.425C942.987 155.425 938.618 154.424 934.383 152.422C930.201 150.365 926.556 147.496 923.446 143.816C920.283 140.082 917.764 135.589 915.887 130.34C914.065 125.09 913.153 119.298 913.153 112.966C913.153 107.175 914.145 101.682 916.129 96.4858C918.112 91.29 920.846 86.7437 924.331 82.8468C927.601 79.2206 931.595 76.325 936.312 74.1601C941.084 71.9952 945.935 70.9128 950.867 70.9128C954.566 70.9128 958.185 71.3999 961.723 72.3741C965.315 73.2942 968.398 74.4849 970.971 75.9462V48.1C970.971 45.8269 970.595 43.7702 969.845 41.93C969.094 40.0357 968.049 38.6015 966.709 37.6273C965.208 36.5989 963.171 35.8683 960.597 35.4353C958.078 34.9482 955.344 34.5964 952.395 34.3799V29.3465L984.802 27.4792L986.008 28.697V136.672C986.008 138.566 986.357 140.19 987.054 141.543C987.804 142.842 988.876 143.951 990.27 144.871C991.289 145.521 992.763 145.927 994.693 146.089C996.623 146.252 998.392 146.36 1000 146.414V151.691ZM970.971 137.646V90.8029C970.542 89.3957 969.845 87.8802 968.88 86.2566C967.915 84.6329 966.709 83.1445 965.261 81.7914C963.707 80.4384 961.884 79.3288 959.793 78.4629C957.702 77.5428 955.263 77.0828 952.476 77.0828C949.259 77.0828 946.284 77.9217 943.55 79.5995C940.869 81.2773 938.484 83.6857 936.393 86.8249C934.409 89.8557 932.828 93.7255 931.649 98.4342C930.523 103.089 929.96 108.257 929.96 113.94C929.96 118.487 930.389 122.627 931.246 126.362C932.104 130.042 933.552 133.479 935.589 136.672C937.465 139.703 939.851 142.138 942.746 143.978C945.694 145.819 949.179 146.739 953.199 146.739C957.488 146.739 961.026 145.792 963.814 143.897C966.655 142.003 969.041 139.919 970.971 137.646Z" fill="#1D5745"/>
</svg>
